PathFileType	4	(X/Y/Z)	C:\Users\WrightLab\Desktop\Jo\P5V11.trc
DataRate	CameraRate	NumFrames	NumMarkers	Units	OrigDataRate	OrigDataStartFrame	OrigNumFrames
100.00	100.00	       13	19	mm	100.00	403	       804
Frame#	Time	Headset_Front			Headset_Back			Headset_Left			Headset_Right			Left_Shoulder			Right_Shoulder			Sternum			C7			Left Elbow			Right Elbow			Left Wrist			Right Wrist			Left ASIS			Right ASIS			S2			Left Knee			Right Knee			Left Ankle			Right Ankle			
		X1	Y1	Z1	X2	Y2	Z2	X3	Y3	Z3	X4	Y4	Z4	X5	Y5	Z5	X6	Y6	Z6	X7	Y7	Z7	X8	Y8	Z8	X9	Y9	Z9	X10	Y10	Z10	X11	Y11	Z11	X12	Y12	Z12	X13	Y13	Z13	X14	Y14	Z14	X15	Y15	Z15	X16	Y16	Z16	X17	Y17	Z17	X18	Y18	Z18	X19	Y19	Z19	

403	4.020	20.61953	1583.07239	303.37628	-24.60680	1631.22864	166.77856							334.17871	1531.33313	228.96030	-0.60836	1434.95581	6.60956	116.32685	1334.01685	199.87532	220.00262	1525.36279	1.72310	404.84012	1231.13879	302.25681	0.86369	1153.56934	-100.22615	355.09003	1023.12433	430.93591	-50.59258	918.76019	-4.45733	239.27373	954.56671	304.12390	28.80058	955.43799	108.08026	350.40491	979.45020	8.13884	286.73019	516.54517	351.63779	67.01651	513.92401	139.69844	511.31277	280.80371	45.38026	224.01718	104.83331	134.84872	
404	4.030	16.65113	1583.77466	309.15012	-30.06508	1632.35522	173.22113							328.48618	1532.02026	235.48021	-5.70777	1436.47253	11.68622	110.45025	1335.20886	205.32353	215.01498	1526.48987	7.55707	398.06271	1231.18201	308.51874	-4.12172	1154.82922	-93.77014	347.58130	1022.88531	435.58286	-56.41637	919.96606	1.91234	231.91005	955.43420	311.84235	23.36351	956.58997	112.22255	344.63266	979.95721	14.93282	274.52316	520.24817	364.50620	62.97023	510.94144	137.61824	500.83005	283.74805	63.71645	224.12622	105.01121	135.10503	
405	4.040	11.49270	1584.49170	315.35596	-35.42868	1633.34705	179.61107							322.36191	1533.72607	241.66736	-11.04155	1437.68799	16.61858	104.73306	1335.81030	210.53397	210.05743	1527.68237	13.65148	390.94882	1232.20166	314.62103	-9.73185	1155.74084	-87.69492	340.60504	1022.28595	440.35312	-62.19887	921.07715	7.58779	224.12343	956.78027	319.59219	18.67553	957.41876	116.06594	336.62216	980.33606	23.41965	263.13428	523.62305	376.48517	58.71595	507.47733	135.32959	489.90930	286.79575	82.06747	223.62050	105.64078	135.62535	
406	4.050	6.09014	1585.08215	321.47678	-40.90441	1634.20972	185.88445							316.15497	1533.70081	248.68454	-16.24869	1439.02649	21.34660	98.07984	1336.67834	215.33733	205.07596	1528.65247	19.75006	384.32101	1232.25439	320.68982	-15.57561	1157.10620	-82.52948	333.39291	1022.23688	444.85977	-68.32267	922.65350	13.70130	216.71931	958.34296	326.92316	14.13303	958.10681	120.53133	330.66614	981.49982	29.95474	250.84531	527.54669	387.12579	54.75557	504.60248	133.42892	478.44141	287.98871	100.55732	223.42468	105.67557	135.76399	
407	4.060	1.30098	1585.74255	327.36917	-46.45795	1635.06250	192.11110							309.70999	1533.93384	255.67056	-20.75094	1439.95972	25.74165	92.77493	1336.76672	220.50873	200.02251	1529.64941	26.55429	378.01624	1232.64160	326.87640	-20.63787	1158.05664	-76.82217	326.78891	1022.03436	450.24490	-74.11897	923.48560	19.98011	209.21973	959.14545	333.95093	9.05070	959.13080	124.94716	325.17651	982.61218	36.54917	238.23837	530.79236	398.14313	50.14928	502.01715	130.98276	466.37701	288.03900	120.46503	223.29112	106.02094	136.01802	
408	4.070	-4.93866	1586.59583	333.87933	-52.02196	1635.68176	198.23555							302.96994	1534.62451	263.02570	-26.10203	1441.25928	30.71670	85.91851	1337.51599	225.73416	194.95244	1531.02881	32.09316	372.07596	1232.62048	332.53143	-25.78582	1159.12500	-71.67880	320.23920	1021.81885	454.90872	-80.00360	925.38910	25.98203	201.13750	960.27875	339.86255	6.10675	959.36591	128.80798	319.45435	983.62952	42.82378	226.30424	533.86121	408.21658	46.10752	499.92773	128.56577	454.39456	287.58005	138.89307	222.98969	106.35355	136.71288	
409	4.080	-10.31898	1586.57605	339.96054	-57.57946	1636.32214	204.40987							296.25220	1533.68591	268.72256	-31.22137	1442.25732	35.52432	78.96517	1338.09753	230.72450	190.05956	1531.82458	38.75088	365.53403	1233.03601	338.79672	-30.93131	1159.94470	-66.61910	313.89453	1020.80273	459.46985	-86.18308	927.23444	31.70470	192.89655	961.51947	347.69284	2.08789	959.41132	131.98564	313.76007	984.61163	48.83771	212.93436	536.93018	417.64844	41.90401	498.63647	126.35360	441.50803	285.95547	158.86894	222.73610	106.74842	136.91261	
410	4.090	-15.73400	1587.16821	345.86295	-63.21905	1636.74768	210.40187							289.69867	1534.96790	276.19733	-36.52194	1443.48633	40.31630	73.12840	1338.00208	235.43816	184.67473	1532.94739	44.33694	359.20239	1232.55090	345.14737	-36.11976	1160.79907	-61.35766	306.87814	1019.74091	464.39380	-92.02390	928.61157	37.50853	184.11452	962.63037	354.95648	-2.51338	959.72424	135.25694	308.36450	985.24438	54.90596	201.32506	540.10498	426.27103	37.08967	498.42712	125.41380	428.86450	283.12802	178.23450	222.78307	107.07501	137.52045	
411	4.100	-21.28044	1587.40613	351.68298	-68.95714	1637.31201	216.40662							282.31723	1533.66064	282.79639	-41.59410	1444.10791	44.82607	65.33878	1338.37695	240.63683	179.02455	1533.40747	50.92199	353.00354	1232.22009	351.08694	-40.95066	1161.56897	-56.85418	301.24133	1019.92212	469.85294	-98.02829	930.14240	43.41882	175.55061	963.14508	360.99762	-7.94764	960.20599	138.80038	303.29953	986.25024	60.90913	190.10664	542.68195	435.03534	32.41759	498.60489	124.08360	415.16049	279.20572	197.84988	222.16734	107.61903	137.23627	
412	4.110	-26.05347	1587.33203	357.03961	-74.65667	1637.54285	222.28230							274.82678	1533.81604	289.57635	-46.61596	1444.84692	49.15953	58.25119	1338.93677	245.59750	174.33614	1534.29333	57.16217	346.35297	1232.87170	357.39609	-46.18171	1162.37415	-52.23968	295.04123	1018.98914	474.85492	-104.12365	931.61664	49.62735	166.85100	963.76111	366.89685	-13.03446	960.20184	142.28763	297.91718	986.94092	66.55186	178.26659	546.10413	442.93298	28.66124	498.28217	123.30930	401.07956	275.11768	217.91722	222.42227	107.65167	138.52725	
413	4.120	-33.15853	1587.70569	363.33423	-80.55783	1637.79663	228.15126							268.33710	1533.50696	296.21478	-51.73045	1445.58594	53.92420	51.42314	1338.91101	250.41206	169.34831	1534.63892	63.26110	340.34296	1232.14307	363.95871	-51.30778	1163.28320	-47.35355	288.76233	1017.29150	479.34647	-110.04971	933.24548	55.22017	156.38437	965.20142	374.15674	-18.63433	960.26685	145.33847	294.48227	987.11853	71.38635	167.85217	548.48169	449.47421	23.92219	497.88437	123.07147	386.99408	269.76147	236.90172	221.98607	108.53755	138.65904	
414	4.130	-37.97738	1587.30017	368.68716	-86.56907	1638.07556	233.98860							261.22440	1533.28687	303.37573	-56.97644	1445.81189	58.21727	45.71519	1338.22937	254.47417	163.80135	1534.80566	70.15273	333.91650	1231.62036	370.69824	-56.38821	1163.88770	-42.96352	282.70419	1016.47595	485.65546	-116.20804	934.95209	60.97444	147.80583	964.55005	379.63489	-23.60903	959.97333	148.14142	289.65033	987.96777	76.67451	156.09865	550.14520	456.14746	20.00243	497.77353	123.62527	371.72552	263.96246	257.17960	222.03502	109.15760	138.40886	
415	4.140	-45.19011	1587.81018	374.85220	-92.60683	1638.11035	239.82881							253.77708	1532.92554	310.43915	-62.60132	1446.61719	62.77080	38.87892	1337.91797	259.21524	158.56401	1534.82886	75.98534	327.08008	1231.58801	377.04535	-61.49362	1164.20178	-38.43518	276.97903	1015.47791	490.96671	-122.16990	936.06757	66.53339	139.98744	963.42535	383.17346	-29.62629	959.96484	151.40189	283.50381	987.29852	83.65810	144.51080	552.17365	462.35663	15.68252	497.53165	125.29945	355.59204	257.58405	276.48489	221.94817	109.47047	138.60509	
